<?xml version="1.0" ?><svg height="200" id="Color" viewBox="0 0 200 200" width="200" xmlns="http://www.w3.org/2000/svg"><defs><style>.cls-1{fill:#593a25;}.cls-2{fill:#ffb612;}</style></defs><title/><path class="cls-1" d="M142.76,73.73a5.46,5.46,0,0,1-5.47-5.47V45.64a5.47,5.47,0,0,1,10.94,0V68.26A5.48,5.48,0,0,1,142.76,73.73Zm-60.09,51.7c-17.48,0-33.87-2.83-46.12-8a46.69,46.69,0,0,1-13.49-8.14c-4.91-4.5-5.94-8.66-5.94-11.35V45.66a5.47,5.47,0,0,1,10.94,0V98c0,.29.43,1.5,2.38,3.28a36.14,36.14,0,0,0,10.35,6.13c11,4.59,25.84,7.13,41.9,7.13a5.46,5.46,0,1,1,0,10.92Z"/><path class="cls-1" d="M82.67,177.17c-17.48,0-33.87-2.83-46.14-8A47,47,0,0,1,23,161c-4.91-4.5-5.94-8.66-5.94-11.35V97.42a5.47,5.47,0,0,1,10.94,0v52.27c0,.29.43,1.5,2.38,3.28a36.14,36.14,0,0,0,10.35,6.13c11,4.59,25.84,7.13,41.9,7.13a5.47,5.47,0,0,1,0,10.94Zm0-103.5c-17.48,0-33.87-2.83-46.14-8A46.47,46.47,0,0,1,23,57.54c-4.91-4.49-5.94-8.65-5.94-11.35s1-6.85,5.94-11.35A47.26,47.26,0,0,1,36.55,26.7c12.27-5.16,28.66-8,46.12-8s33.86,2.83,46.13,8a46.69,46.69,0,0,1,13.49,8.14c4.91,4.5,5.94,8.66,5.94,11.35s-1,6.86-5.94,11.35a47.19,47.19,0,0,1-13.49,8.14C116.53,70.84,100.15,73.67,82.67,73.67Zm0-44c-16.06,0-30.92,2.54-41.88,7.13A35.87,35.87,0,0,0,30.42,43c-1.93,1.78-2.38,3-2.38,3.28s.43,1.5,2.38,3.28c1.64,1.51,4.77,3.77,10.35,6.13,11,4.59,25.84,7.13,41.9,7.13s30.93-2.54,41.89-7.13a35.3,35.3,0,0,0,10.35-6.13c1.94-1.78,2.38-3,2.38-3.28s-.42-1.5-2.38-3.28a36,36,0,0,0-10.35-6.13C113.6,32.21,98.72,29.69,82.67,29.69Z"/><path class="cls-2" d="M141.12,114.79c-14.14,0-23.69-2.72-29.2-5-4.68-1.93-12.54-6.09-12.54-12.26s7.86-10.33,12.54-12.27c5.51-2.28,15.06-5,29.2-5s23.69,2.72,29.2,5c4.69,1.94,12.54,6.1,12.54,12.27S175,107.87,170.32,109.8C164.81,112.07,155.26,114.79,141.12,114.79ZM111.85,97.52c3.71,2.38,12.85,6.33,29.27,6.33s25.57-3.95,29.28-6.33c-3.71-2.38-12.85-6.33-29.28-6.33S115.56,95.14,111.85,97.52Zm29.27,83.77c-14.14,0-23.69-2.72-29.2-5-4.68-1.94-12.54-6.1-12.54-12.27V132.27a5.47,5.47,0,1,1,10.94,0v30.6c2.05,1.9,11.27,7.48,30.82,7.48s28.77-5.58,30.82-7.48v-30.6a5.47,5.47,0,0,1,10.94,0V164c0,6.18-7.85,10.34-12.54,12.27-5.55,2.28-15.1,5-29.24,5Z"/><path class="cls-2" d="M141.12,148c-14.14,0-23.69-2.72-29.2-5-4.68-1.94-12.54-6.1-12.54-12.27V99a5.47,5.47,0,0,1,10.94,0v30.61c2.05,1.89,11.27,7.48,30.82,7.48s28.77-5.59,30.82-7.48V99a5.47,5.47,0,0,1,10.94,0v31.76c0,6.17-7.85,10.33-12.54,12.27-5.55,2.28-15.1,5-29.24,5Z"/></svg>